<?xml version="1.0" encoding="UTF-8"?>
<svg version="1.1" xmlns="http://www.w3.org/2000/svg" width="612" height="344">
<path d="M0 0 C1.8871875 0.0309375 1.8871875 0.0309375 3.8125 0.0625 C3.8125 1.3825 3.8125 2.7025 3.8125 4.0625 C1.3375 5.0525 1.3375 5.0525 -1.1875 6.0625 C0.40520213 12.30905518 2.11011702 18.20733687 4.8125 24.0625 C5.84351947 26.38229381 6.84186517 28.71679915 7.8125 31.0625 C8.08320313 31.65933594 8.35390625 32.25617188 8.6328125 32.87109375 C11.61465769 40.29675677 11.44963431 48.20433352 11.65478516 56.09887695 C11.82159398 58.17572427 12.25471157 60.05821009 12.8125 62.0625 C13.4725 60.0825 14.1325 58.1025 14.8125 56.0625 C15.4725 56.0625 16.1325 56.0625 16.8125 56.0625 C16.99232422 54.95841797 16.99232422 54.95841797 17.17578125 53.83203125 C19.42111444 44.06552064 27.47373814 33.52290751 35.8125 28.0625 C43.42251166 23.98724009 51.15976722 20.14216363 59.8125 19.0625 C60.75222656 18.93101563 61.69195312 18.79953125 62.66015625 18.6640625 C70.89409091 17.68770661 70.89409091 17.68770661 74.8125 20.0625 C74.8125 21.3825 74.8125 22.7025 74.8125 24.0625 C74.1525 24.3925 73.4925 24.7225 72.8125 25.0625 C73.4725 25.7225 74.1325 26.3825 74.8125 27.0625 C77.10883824 23.61799263 77.35266485 21.12437717 77.8125 17.0625 C78.50214844 17.1346875 79.19179688 17.206875 79.90234375 17.28125 C90.92932026 18.5388831 90.92932026 18.5388831 101.8125 17.0625 C102.4725 18.0525 103.1325 19.0425 103.8125 20.0625 C103.4825 21.0525 103.1525 22.0425 102.8125 23.0625 C103.575625 23.805 104.33875 24.5475 105.125 25.3125 C110.69288278 31.00986842 110.69288278 31.00986842 111.10546875 34.640625 C111.07066406 35.52234375 111.03585937 36.4040625 111 37.3125 C110.97292969 38.20453125 110.94585937 39.0965625 110.91796875 40.015625 C110.86576172 41.02882813 110.86576172 41.02882813 110.8125 42.0625 C111.59625 42.145 112.38 42.2275 113.1875 42.3125 C115.8125 43.0625 115.8125 43.0625 117.1875 44.875 C117.94935515 47.54149303 117.71797063 48.44619039 116.8125 51.0625 C115.60659191 53.14317437 114.32772468 55.18236477 113 57.1875 C112.31292969 58.24195313 111.62585938 59.29640625 110.91796875 60.3828125 C108.82586061 63.04549559 107.75295718 63.67978502 104.8125 65.0625 C89.32737276 82.669786 77.8920409 107.23260943 78.9921875 130.93359375 C80.26056665 141.2697712 83.3656374 148.72202115 90.8125 156.0625 C91.4725 156.3925 92.1325 156.7225 92.8125 157.0625 C92.8125 157.7225 92.8125 158.3825 92.8125 159.0625 C94.765625 159.02994792 96.71875 158.99739583 98.671875 158.96484375 C100.8125 159.0625 100.8125 159.0625 102.8359375 159.671875 C107.3886167 160.57161397 112.21971342 156.43002768 115.9375 154.125 C122.65366587 149.30688101 128.20782046 143.95840803 133.12109375 137.28515625 C136.20256637 133.15295198 138.83410193 132.11562267 143.8125 131.0625 C144.1425 130.7325 144.4725 130.4025 144.8125 130.0625 C143.1625 130.0625 141.5125 130.0625 139.8125 130.0625 C140.74798678 126.94070704 141.37299924 125.37949184 144.0546875 123.4453125 C144.92351562 123.03023438 145.79234375 122.61515625 146.6875 122.1875 C147.55117188 121.75695312 148.41484375 121.32640625 149.3046875 120.8828125 C152.01044205 119.9977526 153.18975503 120.07439608 155.8125 121.0625 C155.4825 122.3825 155.1525 123.7025 154.8125 125.0625 C154.1525 125.0625 153.4925 125.0625 152.8125 125.0625 C153.00714844 125.92101562 153.20179688 126.77953125 153.40234375 127.6640625 C153.85169416 131.38725161 153.37340561 133.8432398 152.375 137.4375 C152.08753906 138.49710938 151.80007813 139.55671875 151.50390625 140.6484375 C151.16166016 141.84339844 151.16166016 141.84339844 150.8125 143.0625 C151.51375 142.340625 152.215 141.61875 152.9375 140.875 C160.77232143 133.0625 160.77232143 133.0625 163.8125 133.0625 C164.4725 132.0725 165.1325 131.0825 165.8125 130.0625 C167.1325 130.0625 168.4525 130.0625 169.8125 130.0625 C171.16522089 138.04958449 170.23731584 145.16004144 169 153.125 C168.82146484 154.35283203 168.64292969 155.58066406 168.45898438 156.84570312 C166.58602732 169.40195311 164.20842415 179.24572205 156.08203125 189.203125 C154.73000031 191.18333032 154.36001879 192.75442509 153.8125 195.0625 C151.75 197.375 151.75 197.375 148.8125 200.0625 C148.19761719 200.63484375 147.58273437 201.2071875 146.94921875 201.796875 C140.88200477 207.31038207 134.6491954 210.82261738 127.12890625 214.0546875 C125.60301552 214.71856576 124.08912135 215.41084051 122.58984375 216.1328125 C117.92899158 218.35226591 113.5590894 219.7169175 108.46484375 220.5703125 C106.30686279 220.97076258 104.17247872 221.49677355 102.05078125 222.05859375 C97.02703457 223.34060064 91.97191088 223.75965736 86.81640625 224.18554688 C82.53041917 224.61260663 80.09645135 225.3106704 76.8125 228.0625 C73.5625 227.75 73.5625 227.75 70.8125 227.0625 C70.4825 225.7425 70.1525 224.4225 69.8125 223.0625 C69.2146167 223.07772705 68.6167334 223.0929541 68.00073242 223.10864258 C61.59432376 223.19987014 55.45918796 222.67594311 49.125 221.75 C48.22716797 221.63205078 47.32933594 221.51410156 46.40429688 221.39257812 C41.06719 220.63013429 36.66074849 219.43024926 31.8125 217.0625 C31.8125 216.4025 31.8125 215.7425 31.8125 215.0625 C30.4163149 216.14537995 29.02056996 217.2288274 27.625 218.3125 C26.84769531 218.91578125 26.07039063 219.5190625 25.26953125 220.140625 C23.62447179 221.42738057 22.00680561 222.74990321 20.41796875 224.10546875 C6.2380176 234.75637658 -14.15370872 237.07276124 -31.26171875 235.515625 C-35.03840241 234.93071805 -37.81043423 233.82444736 -41.1875 232.0625 C-44.33468258 230.6375362 -44.33468258 230.6375362 -47.8125 232.6875 C-49.27738366 233.46697938 -50.73541338 234.25943296 -52.1875 235.0625 C-52.93902344 235.47242188 -53.69054687 235.88234375 -54.46484375 236.3046875 C-58.86570158 238.72340279 -58.86570158 238.72340279 -63.171875 241.3046875 C-64.79368434 242.30965483 -66.4877069 243.19593881 -68.1875 244.0625 C-69.5075 243.7325 -70.8275 243.4025 -72.1875 243.0625 C-72.1875 240.0925 -72.1875 237.1225 -72.1875 234.0625 C-73.5075 233.7325 -74.8275 233.4025 -76.1875 233.0625 C-77.171875 231.48828125 -77.171875 231.48828125 -77.9375 229.375 C-79.97259827 224.2626362 -82.65386121 219.68950151 -85.54589844 215.0246582 C-87.62123885 211.55086822 -88.64572856 209.12545994 -88.1875 205.0625 C-86.25 205.4375 -86.25 205.4375 -84.1875 206.0625 C-83.8575 206.7225 -83.5275 207.3825 -83.1875 208.0625 C-81.05928116 205.24538354 -81.05928116 205.24538354 -79.1875 202.0625 C-79.5175 201.0725 -79.8475 200.0825 -80.1875 199.0625 C-79.86947057 197.39284549 -79.53765049 195.72571482 -79.1875 194.0625 C-79.5175 193.7325 -79.8475 193.4025 -80.1875 193.0625 C-80.27 193.84625 -80.3525 194.63 -80.4375 195.4375 C-81.1875 198.0625 -81.1875 198.0625 -83.25 199.375 C-83.889375 199.601875 -84.52875 199.82875 -85.1875 200.0625 C-85.1875 201.0525 -85.1875 202.0425 -85.1875 203.0625 C-86.5075 203.0625 -87.8275 203.0625 -89.1875 203.0625 C-89.29779541 203.64805664 -89.40809082 204.23361328 -89.52172852 204.83691406 C-90.82315233 211.56082728 -92.40512972 218.18428456 -94.125 224.8125 C-94.37701172 225.81410156 -94.62902344 226.81570313 -94.88867188 227.84765625 C-97.5418838 238.0940757 -97.5418838 238.0940757 -100.1875 242.0625 C-102.59765625 243.453125 -102.59765625 243.453125 -105.25 244.3125 C-109.09497646 245.55242599 -109.09497646 245.55242599 -112.1875 248.0625 C-113.48283564 248.60541972 -114.7999572 249.09675561 -116.125 249.5625 C-124.21368854 252.67170134 -131.75588282 256.99665589 -139.375 261.09448242 C-140.63651631 261.76823137 -141.90832494 262.42291247 -143.1875 263.0625 C-144.1775 262.7325 -145.1675 262.4025 -146.1875 262.0625 C-146.1875 257.7725 -146.1875 253.4825 -146.1875 249.0625 C-147.1775 249.3925 -148.1675 249.7225 -149.1875 250.0625 C-149.8475 248.7425 -150.5075 247.4225 -151.1875 246.0625 C-151.8784375 246.69285156 -152.569375 247.32320312 -153.28125 247.97265625 C-162.16217633 254.35880623 -174.72835983 251.93939599 -184.86523438 250.40795898 C-191.47662189 249.31923866 -197.74285191 247.93941993 -203.75 244.875 C-207.71999184 243.03803767 -209.88085341 243.10546742 -214.1875 244.0625 C-217.5625 243.125 -217.5625 243.125 -220.1875 242.0625 C-220.1875 241.4025 -220.1875 240.7425 -220.1875 240.0625 C-220.8475 240.0625 -221.5075 240.0625 -222.1875 240.0625 C-221.1975 242.5375 -221.1975 242.5375 -220.1875 245.0625 C-221.1775 245.0625 -222.1675 245.0625 -223.1875 245.0625 C-224.62890625 242.9609375 -224.62890625 242.9609375 -226.1875 240.0625 C-227.49816599 237.93636832 -228.81078191 235.81143787 -230.125 233.6875 C-234.36942031 226.81023371 -234.36942031 226.81023371 -236.3125 223.375 C-237.38335282 221.48316001 -238.48059064 219.60449702 -239.65234375 217.7734375 C-246.31058939 207.25699084 -248.09138702 196.13409042 -250.1875 184.0625 C-250.47173828 182.61037109 -250.47173828 182.61037109 -250.76171875 181.12890625 C-251.31367144 177.15383415 -251.3786832 173.25896204 -251.375 169.25 C-251.37491943 168.42338867 -251.37483887 167.59677734 -251.37475586 166.74511719 C-251.28868953 157.23977101 -250.04210094 147.97183366 -248.68359375 138.578125 C-247.93277319 133.2573494 -247.26767338 127.9351597 -246.72265625 122.58984375 C-246.64466797 121.83509766 -246.56667969 121.08035156 -246.48632812 120.30273438 C-246.32841943 118.7641034 -246.17479167 117.22502723 -246.02539062 115.68554688 C-245.52705405 110.94932368 -244.57994586 106.63606201 -243.1875 102.0625 C-243.043125 100.928125 -242.89875 99.79375 -242.75 98.625 C-242.20141836 95.15064961 -241.26559272 92.36718928 -239.90625 89.15234375 C-238.15488011 84.06004542 -238.07461946 79.02783744 -238.125 73.6875 C-238.13853516 71.81964844 -238.13853516 71.81964844 -238.15234375 69.9140625 C-238.16394531 68.97304687 -238.17554688 68.03203125 -238.1875 67.0625 C-236.8675 67.0625 -235.5475 67.0625 -234.1875 67.0625 C-233.5275 67.7225 -232.8675 68.3825 -232.1875 69.0625 C-231.8575 66.7525 -231.5275 64.4425 -231.1875 62.0625 C-231.8475 62.0625 -232.5075 62.0625 -233.1875 62.0625 C-233.1875 61.4025 -233.1875 60.7425 -233.1875 60.0625 C-233.8475 60.0625 -234.5075 60.0625 -235.1875 60.0625 C-235.1875 58.7425 -235.1875 57.4225 -235.1875 56.0625 C-234.1975 56.0625 -233.2075 56.0625 -232.1875 56.0625 C-231.5275 54.0825 -230.8675 52.1025 -230.1875 50.0625 C-228.5375 50.3925 -226.8875 50.7225 -225.1875 51.0625 C-225.1875 54.72916667 -225.1875 58.39583333 -225.1875 62.0625 C-224.48625 61.835625 -223.785 61.60875 -223.0625 61.375 C-219.31049725 60.96717361 -217.39318943 62.19872707 -214.1875 64.0625 C-213.71570313 63.14017578 -213.71570313 63.14017578 -213.234375 62.19921875 C-212.80640625 61.39097656 -212.3784375 60.58273438 -211.9375 59.75 C-211.51984375 58.94949219 -211.1021875 58.14898437 -210.671875 57.32421875 C-209.08296094 54.90321548 -207.63975375 53.5798626 -205.1875 52.0625 C-203.125 52 -203.125 52 -201.1875 53.0625 C-200.1224985 55.02865661 -199.11916826 57.02976926 -198.1875 59.0625 C-197.1975 59.5575 -197.1975 59.5575 -196.1875 60.0625 C-195.6925 59.0725 -195.6925 59.0725 -195.1875 58.0625 C-194.5275 58.0625 -193.8675 58.0625 -193.1875 58.0625 C-192.8575 57.0725 -192.5275 56.0825 -192.1875 55.0625 C-190.25 55.75 -190.25 55.75 -188.1875 57.0625 C-187.80877066 58.71944085 -187.48499946 60.38906552 -187.1875 62.0625 C-186.53186703 63.22686063 -185.84127436 64.37193027 -185.125 65.5 C-183.14155712 68.78417897 -182.72563014 71.18279319 -183.1875 75.0625 C-183.5175 75.3925 -183.8475 75.7225 -184.1875 76.0625 C-180.5196148 78.02439209 -177.31501449 79.45551257 -173.1875 80.0625 C-172.8575 79.4025 -172.5275 78.7425 -172.1875 78.0625 C-169.53889573 77.46894386 -166.89552678 77.32040731 -164.1875 77.0625 C-162.26622335 71.42130474 -160.48021554 65.75970252 -158.8359375 60.03125 C-158.1875 58.0625 -158.1875 58.0625 -157.1875 57.0625 C-156.79295777 55.21650312 -156.44573134 53.36024178 -156.125 51.5 C-155.86009766 49.98212891 -155.86009766 49.98212891 -155.58984375 48.43359375 C-155.45707031 47.65113281 -155.32429688 46.86867187 -155.1875 46.0625 C-152.76953125 45.46875 -152.76953125 45.46875 -150.1875 45.0625 C-149.754375 45.5575 -149.32125 46.0525 -148.875 46.5625 C-147.08098626 48.49769268 -147.08098626 48.49769268 -143.3125 48 C-139.32656845 47.32960566 -137.14662435 45.86167168 -134.1875 43.0625 C-129.49357477 39.16997664 -129.49357477 39.16997664 -127.140625 38.34375 C-124.88798227 37.14941469 -124.88798227 37.14941469 -124.17578125 34.1640625 C-123.95277344 33.01679687 -123.72976562 31.86953125 -123.5 30.6875 C-123.26925781 29.54539062 -123.03851563 28.40328125 -122.80078125 27.2265625 C-122.59839844 26.18242188 -122.39601562 25.13828125 -122.1875 24.0625 C-121.99671875 23.32257812 -121.8059375 22.58265625 -121.609375 21.8203125 C-121.06286963 19.5432068 -121.1227285 17.39427405 -121.1875 15.0625 C-118.5208581 13.72917905 -117.02069697 14.39147967 -114.1875 15.0625 C-113.1975 18.5275 -113.1975 18.5275 -112.1875 22.0625 C-109.99966208 19.40583967 -107.9967013 16.76762928 -106.125 13.875 C-104.1875 11.0625 -104.1875 11.0625 -101.1875 9.0625 C-98.51822994 9.26269525 -96.77137191 9.65828099 -94.5625 11.1875 C-92.53944903 13.94620587 -91.44700484 16.88374969 -90.1875 20.0625 C-89.589375 19.85625 -88.99125 19.65 -88.375 19.4375 C-86.1875 19.0625 -86.1875 19.0625 -83.1875 21.0625 C-82.23828125 23.6640625 -82.23828125 23.6640625 -81.5 26.6875 C-81.12294922 28.19183594 -81.12294922 28.19183594 -80.73828125 29.7265625 C-80.46564453 30.88285156 -80.46564453 30.88285156 -80.1875 32.0625 C-78.8571875 30.8559375 -78.8571875 30.8559375 -77.5 29.625 C-74.77657797 27.3629577 -72.81148647 26.25323613 -69.1875 26.0625 C-68.24583984 26.37767578 -68.24583984 26.37767578 -67.28515625 26.69921875 C-64.46209669 27.18812851 -63.55831676 26.37267812 -61.25 24.75 C-58.9986247 23.2296986 -57.18702415 22.06232591 -54.625 21.125 C-52.20894759 20.07184895 -50.98275658 19.06933049 -49.0625 17.3125 C-43.90626981 12.67986052 -36.43164551 7.7544131 -29.50390625 6.625 C-25.93934971 6.02041091 -22.59087316 5.08830794 -19.125 4.0625 C-15.15558545 2.89020819 -11.24872404 1.85081385 -7.1875 1.0625 C-4.43671116 0.14557039 -2.82801087 -0.04636083 0 0 Z M-8.1875 8.0625 C-8.8475 9.7125 -9.5075 11.3625 -10.1875 13.0625 C-10.8475 13.0625 -11.5075 13.0625 -12.1875 13.0625 C-13.25525224 15.02716413 -14.25303465 17.03105359 -15.1875 19.0625 C-14.8575 19.7225 -14.5275 20.3825 -14.1875 21.0625 C-13.61 20.5675 -13.0325 20.0725 -12.4375 19.5625 C-10.1875 18.0625 -10.1875 18.0625 -6.1875 18.0625 C-6.81509865 20.99129371 -7.77372659 23.42345629 -9.1875 26.0625 C-6.5475 26.0625 -3.9075 26.0625 -1.1875 26.0625 C-1.45304688 25.34964844 -1.71859375 24.63679688 -1.9921875 23.90234375 C-3.92484932 18.66158559 -5.74811176 13.46020588 -7.1875 8.0625 C-7.5175 8.0625 -7.8475 8.0625 -8.1875 8.0625 Z M-100.1875 14.0625 C-100.1875 14.7225 -100.1875 15.3825 -100.1875 16.0625 C-99.5275 15.7325 -98.8675 15.4025 -98.1875 15.0625 C-98.8475 14.7325 -99.5075 14.4025 -100.1875 14.0625 Z M-89.1875 23.0625 C-88.1875 25.0625 -88.1875 25.0625 -88.1875 25.0625 Z M87.8125 24.0625 C88.1425 24.7225 88.4725 25.3825 88.8125 26.0625 C89.4725 25.4025 90.1325 24.7425 90.8125 24.0625 C89.8225 24.0625 88.8325 24.0625 87.8125 24.0625 Z M57.8125 25.0625 C58.4725 25.7225 59.1325 26.3825 59.8125 27.0625 C60.1425 26.4025 60.4725 25.7425 60.8125 25.0625 C59.8225 25.0625 58.8325 25.0625 57.8125 25.0625 Z M-117.1875 27.0625 C-118.44291557 30.82874671 -117.55811958 32.43438934 -116.1875 36.0625 C-115.5275 36.0625 -114.8675 36.0625 -114.1875 36.0625 C-113.8575 34.0825 -113.5275 32.1025 -113.1875 30.0625 C-114.5075 29.0725 -115.8275 28.0825 -117.1875 27.0625 Z M33.8125 37.0625 C33.10450324 38.71203412 32.43216265 40.37779218 31.8125 42.0625 C32.71742188 41.43021484 32.71742188 41.43021484 33.640625 40.78515625 C34.43984375 40.23730469 35.2390625 39.68945312 36.0625 39.125 C36.85140625 38.57972656 37.6403125 38.03445312 38.453125 37.47265625 C40.67116933 36.14697081 42.30682623 35.55431613 44.8125 35.0625 C48.16248521 33.94583826 48.60590222 33.31555075 50.5 30.5 C50.93699219 29.85933594 51.37398438 29.21867187 51.82421875 28.55859375 C52.15035156 28.06488281 52.47648437 27.57117188 52.8125 27.0625 C45.83196656 27.0625 38.76569057 32.26409664 33.8125 37.0625 Z M-95.1875 28.0625 C-95.8475 30.0425 -96.5075 32.0225 -97.1875 34.0625 C-95.5375 33.7325 -93.8875 33.4025 -92.1875 33.0625 C-92.8475 31.4125 -93.5075 29.7625 -94.1875 28.0625 C-94.5175 28.0625 -94.8475 28.0625 -95.1875 28.0625 Z M-72.1875 32.0625 C-76.36598497 36.25215788 -76.36598497 36.25215788 -77.5 41.9375 C-77.396875 42.96875 -77.29375 44 -77.1875 45.0625 C-74.80110394 42.91474355 -73.31681218 41.38958374 -72.125 38.375 C-71.815625 37.611875 -71.50625 36.84875 -71.1875 36.0625 C-70.1975 35.7325 -69.2075 35.4025 -68.1875 35.0625 C-68.1875 34.4025 -68.1875 33.7425 -68.1875 33.0625 C-69.5075 32.7325 -70.8275 32.4025 -72.1875 32.0625 Z M-11.1875 34.0625 C-10.1875 36.0625 -10.1875 36.0625 -10.1875 36.0625 Z M-90.1875 35.0625 C-89.8575 36.0525 -89.5275 37.0425 -89.1875 38.0625 C-88.5275 38.0625 -87.8675 38.0625 -87.1875 38.0625 C-87.1875 39.0525 -87.1875 40.0425 -87.1875 41.0625 C-86.5275 41.0625 -85.8675 41.0625 -85.1875 41.0625 C-85.5175 39.0825 -85.8475 37.1025 -86.1875 35.0625 C-87.5075 35.0625 -88.8275 35.0625 -90.1875 35.0625 Z M0.8125 35.0625 C0.8125 36.0525 0.8125 37.0425 0.8125 38.0625 C1.4725 38.0625 2.1325 38.0625 2.8125 38.0625 C2.8125 37.0725 2.8125 36.0825 2.8125 35.0625 C2.1525 35.0625 1.4925 35.0625 0.8125 35.0625 Z M-12.1875 36.0625 C-11.1875 38.0625 -11.1875 38.0625 -11.1875 38.0625 Z M3.8125 43.0625 C3.44125 44.3 3.07 45.5375 2.6875 46.8125 C1.00075539 51.97917887 -1.46775256 56.6086743 -4.078125 61.36328125 C-5.36282266 63.93116394 -5.36282266 63.93116394 -5.046875 66.35546875 C-4.25268473 68.43253013 -4.25268473 68.43253013 -1.1875 69.0625 C-0.5275 70.0525 0.1325 71.0425 0.8125 72.0625 C3.90330784 70.4237132 3.90330784 70.4237132 4.578125 68.0234375 C6.16292473 59.56265183 5.60237663 51.56968476 4.8125 43.0625 C4.4825 43.0625 4.1525 43.0625 3.8125 43.0625 Z M109.8125 48.0625 C110.8125 50.0625 110.8125 50.0625 110.8125 50.0625 Z M99.8125 50.0625 C99.4825 51.0525 99.1525 52.0425 98.8125 53.0625 C97.25 54.75 97.25 54.75 95.8125 56.0625 C97.2975 57.0525 97.2975 57.0525 98.8125 58.0625 C98.8125 59.3825 98.8125 60.7025 98.8125 62.0625 C102.59967347 60.57468185 104.58657001 58.44261591 106.8125 55.0625 C106.4825 54.0725 106.1525 53.0825 105.8125 52.0625 C104.4925 52.0625 103.1725 52.0625 101.8125 52.0625 C101.8125 51.4025 101.8125 50.7425 101.8125 50.0625 C101.1525 50.0625 100.4925 50.0625 99.8125 50.0625 Z M-105.1875 51.0625 C-106.1775 52.0525 -107.1675 53.0425 -108.1875 54.0625 C-106.8675 53.7325 -105.5475 53.4025 -104.1875 53.0625 C-104.5175 52.4025 -104.8475 51.7425 -105.1875 51.0625 Z M-83.1875 53.0625 C-83.5175 54.0525 -83.8475 55.0425 -84.1875 56.0625 C-83.5275 56.0625 -82.8675 56.0625 -82.1875 56.0625 C-82.5175 55.0725 -82.8475 54.0825 -83.1875 53.0625 Z M-109.1875 54.0625 C-110.1775 55.5475 -110.1775 55.5475 -111.1875 57.0625 C-110.1975 56.7325 -109.2075 56.4025 -108.1875 56.0625 C-108.5175 55.4025 -108.8475 54.7425 -109.1875 54.0625 Z M-26.1875 56.0625 C-25.1875 58.0625 -25.1875 58.0625 -25.1875 58.0625 Z M-205.1875 58.0625 C-206.6725 60.5375 -206.6725 60.5375 -208.1875 63.0625 C-206.5375 62.4025 -204.8875 61.7425 -203.1875 61.0625 C-203.8475 60.0725 -204.5075 59.0825 -205.1875 58.0625 Z M-27.1875 58.0625 C-26.1875 60.0625 -26.1875 60.0625 -26.1875 60.0625 Z M-66.1875 59.0625 C-67.6725 61.5375 -67.6725 61.5375 -69.1875 64.0625 C-66.7125 64.5575 -66.7125 64.5575 -64.1875 65.0625 C-63.8575 64.4025 -63.5275 63.7425 -63.1875 63.0625 C-64.1775 61.7425 -65.1675 60.4225 -66.1875 59.0625 Z M-30.1875 61.0625 C-29.8575 61.7225 -29.5275 62.3825 -29.1875 63.0625 C-28.8575 62.4025 -28.5275 61.7425 -28.1875 61.0625 C-28.8475 61.0625 -29.5075 61.0625 -30.1875 61.0625 Z M96.8125 62.0625 C96.8125 62.7225 96.8125 63.3825 96.8125 64.0625 C97.4725 64.0625 98.1325 64.0625 98.8125 64.0625 C98.8125 63.4025 98.8125 62.7425 98.8125 62.0625 C98.1525 62.0625 97.4925 62.0625 96.8125 62.0625 Z M10.8125 63.0625 C10.4825 65.0425 10.1525 67.0225 9.8125 69.0625 C10.4725 68.0725 11.1325 67.0825 11.8125 66.0625 C11.4825 65.0725 11.1525 64.0825 10.8125 63.0625 Z M-194.1875 64.0625 C-194.1875 67.0625 -194.1875 67.0625 -194.1875 67.0625 Z M-90.1875 64.0625 C-90.5175 64.7225 -90.8475 65.3825 -91.1875 66.0625 C-89.8675 65.7325 -88.5475 65.4025 -87.1875 65.0625 C-88.1775 64.7325 -89.1675 64.4025 -90.1875 64.0625 Z M-117.1875 65.0625 C-116.8575 65.7225 -116.5275 66.3825 -116.1875 67.0625 C-115.8575 66.4025 -115.5275 65.7425 -115.1875 65.0625 C-115.8475 65.0625 -116.5075 65.0625 -117.1875 65.0625 Z M-198.1875 66.0625 C-198.1875 67.0525 -198.1875 68.0425 -198.1875 69.0625 C-197.5275 68.0725 -196.8675 67.0825 -196.1875 66.0625 C-196.8475 66.0625 -197.5075 66.0625 -198.1875 66.0625 Z M-118.1875 67.0625 C-117.1875 69.0625 -117.1875 69.0625 -117.1875 69.0625 Z M-211.1875 69.0625 C-211.5175 70.3825 -211.8475 71.7025 -212.1875 73.0625 C-211.5275 71.7425 -210.8675 70.4225 -210.1875 69.0625 C-210.5175 69.0625 -210.8475 69.0625 -211.1875 69.0625 Z M-120.1875 70.0625 C-119.1875 72.0625 -119.1875 72.0625 -119.1875 72.0625 Z M-194.1875 71.0625 C-195.1775 72.5475 -195.1775 72.5475 -196.1875 74.0625 C-195.1975 74.5575 -195.1975 74.5575 -194.1875 75.0625 C-194.1875 76.0525 -194.1875 77.0425 -194.1875 78.0625 C-193.1975 78.0625 -192.2075 78.0625 -191.1875 78.0625 C-191.1875 79.3825 -191.1875 80.7025 -191.1875 82.0625 C-190.1975 82.3925 -189.2075 82.7225 -188.1875 83.0625 C-188.5175 84.7125 -188.8475 86.3625 -189.1875 88.0625 C-186.18719942 88.40876591 -186.18719942 88.40876591 -184.625 86.5625 C-184.150625 86.0675 -183.67625 85.5725 -183.1875 85.0625 C-182.5275 85.0625 -181.8675 85.0625 -181.1875 85.0625 C-181.5175 87.3725 -181.8475 89.6825 -182.1875 92.0625 C-177.9132442 90.4794423 -175.92218206 87.55681596 -173.1875 84.0625 C-174.198125 83.98 -175.20875 83.8975 -176.25 83.8125 C-180.4171001 83.1811212 -183.95511611 81.80115461 -187.1875 79.0625 C-188.68443528 76.99680831 -189.94214858 74.92069992 -191.14453125 72.671875 C-191.66080078 71.87523438 -191.66080078 71.87523438 -192.1875 71.0625 C-192.8475 71.0625 -193.5075 71.0625 -194.1875 71.0625 Z M-83.1875 73.0625 C-83.1875 76.0625 -83.1875 76.0625 -83.1875 76.0625 Z M-66.1875 75.0625 C-66.5175 76.3825 -66.8475 77.7025 -67.1875 79.0625 C-66.5275 79.0625 -65.8675 79.0625 -65.1875 79.0625 C-65.5175 77.7425 -65.8475 76.4225 -66.1875 75.0625 Z M86.8125 77.0625 C87.8125 79.0625 87.8125 79.0625 87.8125 79.0625 Z M-114.1875 79.0625 C-113.1875 81.0625 -113.1875 81.0625 -113.1875 81.0625 Z M4.8125 79.0625 C5.8125 82.0625 5.8125 82.0625 5.8125 82.0625 Z M85.8125 79.0625 C84.1050002 80.34312485 82.43876404 81.68017557 80.8125 83.0625 C80.8125 83.7225 80.8125 84.3825 80.8125 85.0625 C81.8025 85.0625 82.7925 85.0625 83.8125 85.0625 C85.51782323 83.12240478 85.51782323 83.12240478 86.8125 81.0625 C86.4825 80.4025 86.1525 79.7425 85.8125 79.0625 Z M3.8125 82.0625 C4.8125 84.0625 4.8125 84.0625 4.8125 84.0625 Z M-117.1875 83.0625 C-116.1875 85.0625 -116.1875 85.0625 -116.1875 85.0625 Z M2.8125 84.0625 C2.4825 85.3825 2.1525 86.7025 1.8125 88.0625 C2.4725 88.0625 3.1325 88.0625 3.8125 88.0625 C3.4825 86.7425 3.1525 85.4225 2.8125 84.0625 Z M-4.1875 86.0625 C-3.1875 88.0625 -3.1875 88.0625 -3.1875 88.0625 Z M19.8125 92.0625 C18.4925 94.3725 17.1725 96.6825 15.8125 99.0625 C17.1325 98.7325 18.4525 98.4025 19.8125 98.0625 C19.8125 97.4025 19.8125 96.7425 19.8125 96.0625 C20.8025 95.7325 21.7925 95.4025 22.8125 95.0625 C22.1525 94.7325 21.4925 94.4025 20.8125 94.0625 C20.4825 93.4025 20.1525 92.7425 19.8125 92.0625 Z M-89.1875 94.0625 C-89.1875 95.0525 -89.1875 96.0425 -89.1875 97.0625 C-88.5275 96.0725 -87.8675 95.0825 -87.1875 94.0625 C-87.8475 94.0625 -88.5075 94.0625 -89.1875 94.0625 Z M-76.1875 94.0625 C-77.57040887 95.53604349 -78.91927194 97.04166793 -80.25 98.5625 C-80.98347656 99.3978125 -81.71695313 100.233125 -82.47265625 101.09375 C-83.32150391 102.06828125 -83.32150391 102.06828125 -84.1875 103.0625 C-83.8575 103.7225 -83.5275 104.3825 -83.1875 105.0625 C-78.67459197 101.72687233 -76.50543186 99.72960699 -75.1875 94.0625 C-75.5175 94.0625 -75.8475 94.0625 -76.1875 94.0625 Z M39.8125 95.0625 C40.8125 97.0625 40.8125 97.0625 40.8125 97.0625 Z M-98.1875 103.0625 C-99.02655565 104.18323862 -99.85857831 105.30924547 -100.6875 106.4375 C-101.1515625 107.06398438 -101.615625 107.69046875 -102.09375 108.3359375 C-103.36588101 110.00344613 -103.36588101 110.00344613 -103.1875 112.0625 C-103.8475 112.0625 -104.5075 112.0625 -105.1875 112.0625 C-105.88715443 113.32668246 -106.57184763 114.59915402 -107.25 115.875 C-107.63285156 116.58269531 -108.01570312 117.29039062 -108.41015625 118.01953125 C-109.49013511 120.20947801 -109.49013511 120.20947801 -108.1875 123.0625 C-103.55831413 116.9501769 -99.35603475 111.05968091 -96.1875 104.0625 C-96.8475 103.7325 -97.5075 103.4025 -98.1875 103.0625 Z M-85.1875 105.0625 C-85.1875 108.0625 -85.1875 108.0625 -85.1875 108.0625 Z M-233.1875 106.0625 C-232.1875 109.0625 -232.1875 109.0625 -232.1875 109.0625 Z M-34.1875 119.0625 C-37.83525386 122.94559282 -38.77275633 125.77451818 -39.1875 131.0625 C-37.2206974 129.0956974 -36.2503363 127.5180341 -35 125.0625 C-34.63519531 124.36125 -34.27039063 123.66 -33.89453125 122.9375 C-33.66121094 122.31875 -33.42789063 121.7 -33.1875 121.0625 C-33.5175 120.4025 -33.8475 119.7425 -34.1875 119.0625 Z M-205.1875 129.0625 C-204.1875 131.0625 -204.1875 131.0625 -204.1875 131.0625 Z M-206.1875 131.0625 C-205.1875 133.0625 -205.1875 133.0625 -205.1875 133.0625 Z M-209.1875 137.0625 C-208.1875 139.0625 -208.1875 139.0625 -208.1875 139.0625 Z M162.8125 138.0625 C161.8225 139.5475 161.8225 139.5475 160.8125 141.0625 C161.8025 141.3925 162.7925 141.7225 163.8125 142.0625 C163.4825 140.7425 163.1525 139.4225 162.8125 138.0625 Z M-210.1875 139.0625 C-209.1875 141.0625 -209.1875 141.0625 -209.1875 141.0625 Z M-132.1875 140.0625 C-132.1875 140.7225 -132.1875 141.3825 -132.1875 142.0625 C-131.1975 141.7325 -130.2075 141.4025 -129.1875 141.0625 C-130.1775 140.7325 -131.1675 140.4025 -132.1875 140.0625 Z M61.8125 139.0625 C61.1525 139.7225 60.4925 140.3825 59.8125 141.0625 C60.8025 141.0625 61.7925 141.0625 62.8125 141.0625 C62.4825 140.4025 62.1525 139.7425 61.8125 139.0625 Z M-211.1875 141.0625 C-210.1875 143.0625 -210.1875 143.0625 -210.1875 143.0625 Z M-52.1875 141.0625 C-53.5075 143.7025 -54.8275 146.3425 -56.1875 149.0625 C-55.5275 149.0625 -54.8675 149.0625 -54.1875 149.0625 C-52.41554126 146.77606188 -52.41554126 146.77606188 -51.1875 144.0625 C-51.5175 143.0725 -51.8475 142.0825 -52.1875 141.0625 Z M-41.1875 141.0625 C-42.31266085 142.89534443 -42.31266085 142.89534443 -43.1875 145.0625 C-42.8575 146.0525 -42.5275 147.0425 -42.1875 148.0625 C-40.5375 146.4125 -38.8875 144.7625 -37.1875 143.0625 C-38.5075 142.4025 -39.8275 141.7425 -41.1875 141.0625 Z M-138.1875 144.0625 C-137.1875 146.0625 -137.1875 146.0625 -137.1875 146.0625 Z M-139.1875 146.0625 C-143.89727855 152.27572578 -147.58442383 159.17107419 -151.1875 166.0625 C-151.57421875 166.76761719 -151.9609375 167.47273438 -152.359375 168.19921875 C-153.39056923 170.17956888 -153.39056923 170.17956888 -153.1875 173.0625 C-152.5275 173.3925 -151.8675 173.7225 -151.1875 174.0625 C-150.0625 176.125 -150.0625 176.125 -149.1875 178.0625 C-144.32968024 169.47877964 -140.1875 160.13488543 -140.1875 150.0625 C-139.1975 150.0625 -138.2075 150.0625 -137.1875 150.0625 C-137.5175 148.7425 -137.8475 147.4225 -138.1875 146.0625 C-138.5175 146.0625 -138.8475 146.0625 -139.1875 146.0625 Z M-241.1875 148.0625 C-243.28100689 151.4644487 -243.36692163 154.11522412 -243.1875 158.0625 C-240.89116176 154.61799263 -240.64733515 152.12437717 -240.1875 148.0625 C-240.5175 148.0625 -240.8475 148.0625 -241.1875 148.0625 Z M-21.1875 148.0625 C-20.1875 150.0625 -20.1875 150.0625 -20.1875 150.0625 Z M161.8125 148.0625 C160.3275 152.0225 160.3275 152.0225 158.8125 156.0625 C159.8025 156.0625 160.7925 156.0625 161.8125 156.0625 C162.1425 153.4225 162.4725 150.7825 162.8125 148.0625 C162.4825 148.0625 162.1525 148.0625 161.8125 148.0625 Z M-128.1875 150.0625 C-127.1875 152.0625 -127.1875 152.0625 -127.1875 152.0625 Z M25.8125 150.0625 C25.4825 152.3725 25.1525 154.6825 24.8125 157.0625 C24.1525 157.0625 23.4925 157.0625 22.8125 157.0625 C22.4825 159.3725 22.1525 161.6825 21.8125 164.0625 C25.07515612 161.88739592 25.55186409 160.93300047 27 157.4375 C27.34417969 156.62023437 27.68835938 155.80296875 28.04296875 154.9609375 C28.29691406 154.33445313 28.55085938 153.70796875 28.8125 153.0625 C27.8225 152.0725 26.8325 151.0825 25.8125 150.0625 Z M-207.1875 155.0625 C-208.1775 156.5475 -208.1775 156.5475 -209.1875 158.0625 C-208.8575 159.0525 -208.5275 160.0425 -208.1875 161.0625 C-207.5275 160.0725 -206.8675 159.0825 -206.1875 158.0625 C-206.5175 157.0725 -206.8475 156.0825 -207.1875 155.0625 Z M-49.1875 156.0625 C-49.5175 157.0525 -49.8475 158.0425 -50.1875 159.0625 C-49.5275 159.0625 -48.8675 159.0625 -48.1875 159.0625 C-48.5175 158.0725 -48.8475 157.0825 -49.1875 156.0625 Z M-191.1875 158.0625 C-190.1875 160.0625 -190.1875 160.0625 -190.1875 160.0625 Z M-133.1875 158.0625 C-132.1875 160.0625 -132.1875 160.0625 -132.1875 160.0625 Z M115.8125 160.0625 C113.3375 161.5475 113.3375 161.5475 110.8125 163.0625 C111.4725 163.7225 112.1325 164.3825 112.8125 165.0625 C114.1325 164.0725 115.4525 163.0825 116.8125 162.0625 C116.4825 161.4025 116.1525 160.7425 115.8125 160.0625 Z M20.8125 164.0625 C20.4825 165.7125 20.1525 167.3625 19.8125 169.0625 C20.8025 168.0725 21.7925 167.0825 22.8125 166.0625 C22.1525 165.4025 21.4925 164.7425 20.8125 164.0625 Z M-18.1875 166.0625 C-17.1875 168.0625 -17.1875 168.0625 -17.1875 168.0625 Z M-6.1875 166.0625 C-5.1875 168.0625 -5.1875 168.0625 -5.1875 168.0625 Z M27.8125 167.0625 C28.8125 169.0625 28.8125 169.0625 28.8125 169.0625 Z M-20.1875 169.0625 C-19.1875 172.0625 -19.1875 172.0625 -19.1875 172.0625 Z M-8.1875 170.0625 C-7.1875 172.0625 -7.1875 172.0625 -7.1875 172.0625 Z M25.8125 171.0625 C25.1525 173.0425 24.4925 175.0225 23.8125 177.0625 C24.8025 176.4025 25.7925 175.7425 26.8125 175.0625 C26.4825 173.7425 26.1525 172.4225 25.8125 171.0625 Z M-21.1875 172.0625 C-20.1875 174.0625 -20.1875 174.0625 -20.1875 174.0625 Z M-9.1875 172.0625 C-8.1875 174.0625 -8.1875 174.0625 -8.1875 174.0625 Z M17.8125 172.0625 C18.8125 174.0625 18.8125 174.0625 18.8125 174.0625 Z M152.8125 180.0625 C153.1425 180.7225 153.4725 181.3825 153.8125 182.0625 C154.1425 181.4025 154.4725 180.7425 154.8125 180.0625 C154.1525 180.0625 153.4925 180.0625 152.8125 180.0625 Z M151.8125 182.0625 C152.8125 184.0625 152.8125 184.0625 152.8125 184.0625 Z M-242.1875 183.0625 C-241.8575 186.3625 -241.5275 189.6625 -241.1875 193.0625 C-239.72617783 190.13985566 -238.84650754 188.13786854 -238.1875 185.0625 C-239.5075 184.4025 -240.8275 183.7425 -242.1875 183.0625 Z M150.8125 184.0625 C151.8125 186.0625 151.8125 186.0625 151.8125 186.0625 Z M148.8125 187.0625 C148.1525 188.3825 147.4925 189.7025 146.8125 191.0625 C147.8025 190.4025 148.7925 189.7425 149.8125 189.0625 C149.4825 188.4025 149.1525 187.7425 148.8125 187.0625 Z M145.8125 191.0625 C146.8125 193.0625 146.8125 193.0625 146.8125 193.0625 Z M-88.1875 196.0625 C-87.1875 198.0625 -87.1875 198.0625 -87.1875 198.0625 Z M141.8125 196.0625 C142.8125 198.0625 142.8125 198.0625 142.8125 198.0625 Z M-185.1875 197.0625 C-185.5175 197.7225 -185.8475 198.3825 -186.1875 199.0625 C-185.1975 198.7325 -184.2075 198.4025 -183.1875 198.0625 C-183.8475 197.7325 -184.5075 197.4025 -185.1875 197.0625 Z M-44.1875 199.0625 C-43.8575 200.3825 -43.5275 201.7025 -43.1875 203.0625 C-42.5275 202.7325 -41.8675 202.4025 -41.1875 202.0625 C-41.1875 201.0725 -41.1875 200.0825 -41.1875 199.0625 C-42.1775 199.0625 -43.1675 199.0625 -44.1875 199.0625 Z M26.8125 201.0625 C26.565 201.84625 26.3175 202.63 26.0625 203.4375 C24.8125 206.0625 24.8125 206.0625 22.84375 206.90625 C20.59221239 207.92044259 20.59221239 207.92044259 19.765625 210.4453125 C19.53359375 211.35023438 19.3015625 212.25515625 19.0625 213.1875 C18.82015625 214.09757813 18.5778125 215.00765625 18.328125 215.9453125 C18.15796875 216.64398438 17.9878125 217.34265625 17.8125 218.0625 C18.575625 217.423125 19.33875 216.78375 20.125 216.125 C22.8125 214.0625 22.8125 214.0625 25.8125 213.0625 C27.14583333 210.0625 27.14583333 210.0625 25.8125 207.0625 C26.4725 207.0625 27.1325 207.0625 27.8125 207.0625 C28.4725 205.4125 29.1325 203.7625 29.8125 202.0625 C28.8225 201.7325 27.8325 201.4025 26.8125 201.0625 Z M41.8125 202.0625 C42.1425 202.7225 42.4725 203.3825 42.8125 204.0625 C43.1425 203.4025 43.4725 202.7425 43.8125 202.0625 C43.1525 202.0625 42.4925 202.0625 41.8125 202.0625 Z M-13.1875 204.0625 C-16.39967235 208.91899867 -18.762146 214.26888695 -21.2265625 219.53125 C-22.13945484 221.41278382 -23.15709113 223.24266498 -24.1875 225.0625 C-25.1775 225.3925 -26.1675 225.7225 -27.1875 226.0625 C-27.5175 226.7225 -27.8475 227.3825 -28.1875 228.0625 C-30.1675 229.0525 -30.1675 229.0525 -32.1875 230.0625 C-26.5775 230.0625 -20.9675 230.0625 -15.1875 230.0625 C-15.1875 229.0725 -15.1875 228.0825 -15.1875 227.0625 C-16.1775 226.7325 -17.1675 226.4025 -18.1875 226.0625 C-17.69809192 221.36418246 -16.69913936 217.44465369 -14.953125 213.0625 C-13.8239103 210.11271467 -13.01282436 207.1098515 -12.1875 204.0625 C-12.5175 204.0625 -12.8475 204.0625 -13.1875 204.0625 Z M40.8125 204.0625 C40.1525 205.3825 39.4925 206.7025 38.8125 208.0625 C39.4725 208.0625 40.1325 208.0625 40.8125 208.0625 C41.1425 206.7425 41.4725 205.4225 41.8125 204.0625 C41.4825 204.0625 41.1525 204.0625 40.8125 204.0625 Z M-233.1875 205.0625 C-232.1875 207.0625 -232.1875 207.0625 -232.1875 207.0625 Z M-231.1875 206.0625 C-231.5175 207.3825 -231.8475 208.7025 -232.1875 210.0625 C-231.5275 208.7425 -230.8675 207.4225 -230.1875 206.0625 C-230.5175 206.0625 -230.8475 206.0625 -231.1875 206.0625 Z M-136.1875 208.0625 C-142.25087118 215.53836106 -143.16036066 222.64514836 -143.1875 232.0625 C-142.5275 232.0625 -141.8675 232.0625 -141.1875 232.0625 C-140.8575 234.0425 -140.5275 236.0225 -140.1875 238.0625 C-137.99041879 235.86541879 -137.54072321 234.54476667 -136.625 231.625 C-136.37621094 230.84253906 -136.12742187 230.06007813 -135.87109375 229.25390625 C-135.64550781 228.53074219 -135.41992188 227.80757812 -135.1875 227.0625 C-134.8575 226.0725 -134.5275 225.0825 -134.1875 224.0625 C-133.5275 223.7325 -132.8675 223.4025 -132.1875 223.0625 C-130.90152071 220.16904659 -131.22916278 218.91806901 -132.125 215.8125 C-132.475625 214.905 -132.82625 213.9975 -133.1875 213.0625 C-133.8475 213.0625 -134.5075 213.0625 -135.1875 213.0625 C-135.1875 211.4125 -135.1875 209.7625 -135.1875 208.0625 C-135.5175 208.0625 -135.8475 208.0625 -136.1875 208.0625 Z M37.8125 208.0625 C36.8225 209.0525 35.8325 210.0425 34.8125 211.0625 C36.1325 211.3925 37.4525 211.7225 38.8125 212.0625 C38.4825 210.7425 38.1525 209.4225 37.8125 208.0625 Z M-98.1875 213.0625 C-99.83182382 215.08121449 -101.42556276 217.11527931 -103 219.1875 C-103.43892578 219.75726563 -103.87785156 220.32703125 -104.33007812 220.9140625 C-106.44898384 223.68469702 -108.45562135 226.46634886 -110.38671875 229.375 C-112.1875 232.0625 -112.1875 232.0625 -114.1875 233.9375 C-116.99465499 236.92010218 -118.49868488 240.36147962 -120.1875 244.0625 C-111.13391665 241.7310723 -111.13391665 241.7310723 -103.1875 237.0625 C-102.29587702 234.69178284 -101.82926082 232.49407979 -101.4765625 229.98828125 C-101.1875 228.0625 -101.1875 228.0625 -100.1875 227.0625 C-99.81540533 225.65551702 -99.48921868 224.23623502 -99.1875 222.8125 C-99.01476562 222.00425781 -98.84203125 221.19601562 -98.6640625 220.36328125 C-98.16043285 217.93182336 -97.65934208 215.50035073 -97.1875 213.0625 C-97.5175 213.0625 -97.8475 213.0625 -98.1875 213.0625 Z M9.8125 213.0625 C9.35810547 214.01962891 9.35810547 214.01962891 8.89453125 214.99609375 C8.47558594 215.82238281 8.05664062 216.64867187 7.625 217.5 C7.21894531 218.32371094 6.81289063 219.14742187 6.39453125 219.99609375 C4.8125 222.0625 4.8125 222.0625 2.13671875 222.84765625 C1.36972656 222.91855469 0.60273438 222.98945313 -0.1875 223.0625 C-1.1775 221.7425 -2.1675 220.4225 -3.1875 219.0625 C-4.1775 220.733125 -4.1775 220.733125 -5.1875 222.4375 C-5.55875 223.06398438 -5.93 223.69046875 -6.3125 224.3359375 C-7.33818348 226.03722667 -7.33818348 226.03722667 -7.1875 228.0625 C-0.03581485 227.56354522 6.22541281 224.74686185 12.8125 222.0625 C12.63847656 221.28519531 12.46445312 220.50789062 12.28515625 219.70703125 C11.80944751 217.04542121 11.97001303 215.58996092 12.8125 213.0625 C11.8225 213.0625 10.8325 213.0625 9.8125 213.0625 Z M92.75 214.5625 C91.64978516 215.25859375 91.64978516 215.25859375 90.52734375 215.96875 C89.96144531 216.3296875 89.39554687 216.690625 88.8125 217.0625 C91.88140187 218.59695094 94.51344266 217.61234289 97.8125 217.0625 C97.8125 215.4125 97.8125 213.7625 97.8125 212.0625 C95.91304706 212.0625 94.30340125 213.57621349 92.75 214.5625 Z M-78.1875 215.0625 C-77.1875 218.0625 -77.1875 218.0625 -77.1875 218.0625 Z M-2.1875 215.0625 C-1.1875 219.0625 -1.1875 219.0625 -1.1875 219.0625 Z M48.8125 215.0625 C52.8125 216.0625 52.8125 216.0625 52.8125 216.0625 Z M54.8125 215.0625 C54.1525 215.7225 53.4925 216.3825 52.8125 217.0625 C53.8025 217.0625 54.7925 217.0625 55.8125 217.0625 C55.4825 216.4025 55.1525 215.7425 54.8125 215.0625 Z M-36.1875 222.0625 C-36.31125 222.701875 -36.435 223.34125 -36.5625 224 C-36.76875 224.680625 -36.975 225.36125 -37.1875 226.0625 C-38.1775 226.5575 -38.1775 226.5575 -39.1875 227.0625 C-36.8775 227.7225 -34.5675 228.3825 -32.1875 229.0625 C-32.78933749 227.04204558 -33.46056096 225.04138961 -34.1875 223.0625 C-34.8475 222.7325 -35.5075 222.4025 -36.1875 222.0625 Z M-164.1875 224.0625 C-163.1875 226.0625 -163.1875 226.0625 -163.1875 226.0625 Z M-50.1875 224.0625 C-50.5175 224.7225 -50.8475 225.3825 -51.1875 226.0625 C-50.5275 226.0625 -49.8675 226.0625 -49.1875 226.0625 C-49.5175 225.4025 -49.8475 224.7425 -50.1875 224.0625 Z M-165.1875 226.0625 C-164.1875 229.0625 -164.1875 229.0625 -164.1875 229.0625 Z M-63.1875 229.0625 C-63.1875 232.0625 -63.1875 232.0625 -63.1875 232.0625 Z M-217.1875 230.0625 C-217.5175 231.0525 -217.8475 232.0425 -218.1875 233.0625 C-216.94573305 233.76476141 -215.69364401 234.44879109 -214.4375 235.125 C-213.74140625 235.50785156 -213.0453125 235.89070312 -212.328125 236.28515625 C-209.82609372 237.1937406 -208.6542645 236.94586837 -206.1875 236.0625 C-206.8475 235.4025 -207.5075 234.7425 -208.1875 234.0625 C-208.5175 233.4025 -208.8475 232.7425 -209.1875 232.0625 C-209.8475 232.0625 -210.5075 232.0625 -211.1875 232.0625 C-211.8475 231.4025 -212.5075 230.7425 -213.1875 230.0625 C-214.5075 230.0625 -215.8275 230.0625 -217.1875 230.0625 Z M-182.1875 229.0625 C-182.5175 230.0525 -182.8475 231.0425 -183.1875 232.0625 C-185.4975 231.7325 -187.8075 231.4025 -190.1875 231.0625 C-190.1875 231.7225 -190.1875 232.3825 -190.1875 233.0625 C-190.8475 233.0625 -191.5075 233.0625 -192.1875 233.0625 C-193.95212683 236.15059695 -194.1875 237.29562136 -194.1875 241.0625 C-195.1775 241.5575 -195.1775 241.5575 -196.1875 242.0625 C-184.22104911 245.56004723 -173.54051604 246.19742372 -161.1875 246.0625 C-160.8575 244.7425 -160.5275 243.4225 -160.1875 242.0625 C-161.1775 241.7325 -162.1675 241.4025 -163.1875 241.0625 C-163.6825 239.5775 -163.6825 239.5775 -164.1875 238.0625 C-164.8475 237.7325 -165.5075 237.4025 -166.1875 237.0625 C-165.8575 234.4225 -165.5275 231.7825 -165.1875 229.0625 C-168.20443943 231.91924795 -170.59304531 234.88598931 -172.9375 238.3125 C-173.55109375 239.20453125 -174.1646875 240.0965625 -174.796875 241.015625 C-175.25578125 241.69109375 -175.7146875 242.3665625 -176.1875 243.0625 C-177.5075 242.7325 -178.8275 242.4025 -180.1875 242.0625 C-180.88923653 237.67664671 -181.29584375 233.50459357 -181.1875 229.0625 C-181.5175 229.0625 -181.8475 229.0625 -182.1875 229.0625 Z M-149.1875 232.0625 C-151.06293354 235.93013446 -151.06293354 235.93013446 -150.1875 240.0625 C-148.0355563 236.83458445 -147.98663557 235.77849191 -148.1875 232.0625 C-148.5175 232.0625 -148.8475 232.0625 -149.1875 232.0625 Z M-206.1875 237.0625 C-205.8575 237.7225 -205.5275 238.3825 -205.1875 239.0625 C-204.5275 238.7325 -203.8675 238.4025 -203.1875 238.0625 C-204.1775 237.7325 -205.1675 237.4025 -206.1875 237.0625 Z M-131.1875 243.0625 C-130.1875 245.0625 -130.1875 245.0625 -130.1875 245.0625 Z M-133.1875 246.0625 C-134.6725 248.5375 -134.6725 248.5375 -136.1875 251.0625 C-134.8675 250.4025 -133.5475 249.7425 -132.1875 249.0625 C-132.5175 248.0725 -132.8475 247.0825 -133.1875 246.0625 Z " fill="#787878" transform="translate(335.1875,37.9375)"/>
<path d="M0 0 C0.99 0 1.98 0 3 0 C3.27972656 0.52207031 3.55945313 1.04414062 3.84765625 1.58203125 C9.0791608 11.90055208 9.0791608 11.90055208 16 21 C16.29964406 23.06778858 16.53954611 25.1442949 16.75390625 27.22265625 C16.88603516 28.48271484 17.01816406 29.74277344 17.15429688 31.04101562 C17.2904591 32.38150082 17.42652556 33.72199574 17.5625 35.0625 C17.70207106 36.40694293 17.84203986 37.75134463 17.98242188 39.09570312 C18.32554138 42.3967494 18.66454667 45.69816731 19 49 C19.77722412 49.14767822 20.55444824 49.29535645 21.35522461 49.44750977 C26.59760948 50.54263734 31.39629603 52.63283058 34.46875 57.16796875 C37.72312411 64.47868774 38.372645 72.45429326 35.9375 80.125 C31.55630745 90.03820525 22.65668465 99.25353571 12.6484375 103.3828125 C9.44981913 104.37548717 6.25748102 105.22522462 3 106 C1.56029434 106.40898042 0.12223974 106.82392577 -1.3125 107.25 C-2.6428125 107.62125 -2.6428125 107.62125 -4 108 C-4.15059542 112.29196944 -4.24715893 115.2975483 -2.8125 119.375 C-1.68367185 124.41131019 -2.97974871 128.31746841 -5 133 C-5.99 133.99 -5.99 133.99 -7 135 C-8.32 135 -9.64 135 -11 135 C-11 134.34 -11 133.68 -11 133 C-11.598125 132.71125 -12.19625 132.4225 -12.8125 132.125 C-16.94897771 129.99766861 -18.31316041 128.52191407 -19.984375 124.24609375 C-21.26748129 121.40845483 -22.87345629 118.84259341 -24.5 116.1875 C-27.19583255 111.64923262 -29.01195406 107.50629316 -30.3203125 102.41015625 C-31.02601057 99.90776713 -31.99367865 97.68029037 -33.0625 95.3125 C-40.36557282 77.23669523 -38.16259575 53.61711401 -34 35 C-33.443125 33.92685547 -33.443125 33.92685547 -32.875 32.83203125 C-31.61103843 30.18561171 -32.03237647 28.12803763 -32.375 25.25 C-32.48585938 24.26515625 -32.59671875 23.2803125 -32.7109375 22.265625 C-32.80632812 21.51796875 -32.90171875 20.7703125 -33 20 C-32.01 20 -31.02 20 -30 20 C-29.67 20.66 -29.34 21.32 -29 22 C-28.39671875 21.10796875 -27.7934375 20.2159375 -27.171875 19.296875 C-26.36480891 18.11442934 -25.55750461 16.93214624 -24.75 15.75 C-24.35425781 15.16347656 -23.95851563 14.57695313 -23.55078125 13.97265625 C-19.79665408 8.49532317 -16.75399024 4.52920534 -10 3 C-6.99107828 2.85226244 -4.00938111 2.87962476 -1 3 C-0.67 2.01 -0.34 1.02 0 0 Z M-1 55 C-4.64775386 58.88309282 -5.58525633 61.71201818 -6 67 C-4.0331974 65.0331974 -3.0628363 63.4555341 -1.8125 61 C-1.44769531 60.29875 -1.08289063 59.5975 -0.70703125 58.875 C-0.47371094 58.25625 -0.24039063 57.6375 0 57 C-0.33 56.34 -0.66 55.68 -1 55 Z M-19 77 C-20.32 79.64 -21.64 82.28 -23 85 C-22.34 85 -21.68 85 -21 85 C-19.22804126 82.71356188 -19.22804126 82.71356188 -18 80 C-18.33 79.01 -18.66 78.02 -19 77 Z M-8 77 C-9.12516085 78.83284443 -9.12516085 78.83284443 -10 81 C-9.67 81.99 -9.34 82.98 -9 84 C-7.35 82.35 -5.7 80.7 -4 79 C-5.32 78.34 -6.64 77.68 -8 77 Z M12 84 C13 86 13 86 13 86 Z M-16 92 C-16.33 92.99 -16.66 93.98 -17 95 C-16.34 95 -15.68 95 -15 95 C-15.33 94.01 -15.66 93.02 -16 92 Z " fill="#F7F7F7" transform="translate(302,102)"/>
<path d="M0 0 C0.58910156 0.1546875 1.17820313 0.309375 1.78515625 0.46875 C4.18731953 1.08039399 4.18731953 1.08039399 7.4375 1.5 C11.97263425 3.40953021 12.97299253 5.5550047 15.15234375 9.80859375 C16 12 16 12 16 15 C16.99 15.33 17.98 15.66 19 16 C19.625 17.75 19.625 17.75 20 20 C20.60604039 23.16432565 21.3133426 26.14522368 22.375 29.1875 C23.73696853 33.1083185 24.88338388 37.0648438 26 41.0625 C27.07970961 44.91387797 28.18814067 48.66682838 29.6875 52.375 C30.86134507 55.61704828 31.36526221 58.41931121 31.6953125 61.83203125 C32.0433837 64.30869171 32.67845564 66.59799909 33.375 69 C34.95560612 74.5088772 36.01161804 80.0542446 36.99755859 85.69335938 C37.6351779 89.45825365 37.6351779 89.45825365 39 93 C39.12283119 95.33093612 39.17554232 97.66586039 39.1875 100 C39.20167969 101.258125 39.21585937 102.51625 39.23046875 103.8125 C39 107 39 107 37 109 C36.01 108.67 35.02 108.34 34 108 C33.4804135 105.99093219 32.98655279 103.97273721 32.6015625 101.93359375 C31.87448784 98.38792447 30.90647463 94.92243906 29.9375 91.4375 C28.52992932 86.2985572 27.43402489 81.31680494 27 76 C26.01 76 25.02 76 24 76 C24 76.66 24 77.32 24 78 C20.44039436 79.01050337 16.87689478 80.00653404 13.3125 81 C12.30509766 81.28617187 11.29769531 81.57234375 10.25976562 81.8671875 C8.79506836 82.27324219 8.79506836 82.27324219 7.30078125 82.6875 C6.40528564 82.93886719 5.50979004 83.19023437 4.5871582 83.44921875 C0.1637818 84.3909133 -3.62131923 84.00084132 -8 83 C-10.64221582 87.75749401 -11.93901914 92.23859579 -13.0625 97.5 C-14.14365656 102.44118943 -15.29949728 107.22347682 -17 112 C-17.66 112 -18.32 112 -19 112 C-19.33 113.32 -19.66 114.64 -20 116 C-21.65 115.67 -23.3 115.34 -25 115 C-25.495 112.03 -25.495 112.03 -26 109 C-25.34 109 -24.68 109 -24 109 C-23.67 109.66 -23.34 110.32 -23 111 C-22.67 109.68 -22.34 108.36 -22 107 C-22.66 106.67 -23.32 106.34 -24 106 C-23.68877013 96.94213751 -23.18504931 88.47637498 -20.6875 79.7109375 C-20.00034277 77.0013516 -19.70065812 74.47163143 -19.5 71.6875 C-19.21045745 68.02768215 -18.40670276 65.32196941 -16.80859375 61.98046875 C-15.38588891 58.49587284 -14.75589812 54.81252121 -13.953125 51.14453125 C-12.5308406 44.79412792 -10.81348158 38.5149696 -9.15698242 32.22265625 C-8.66321934 30.34664407 -8.17081437 28.47027378 -7.67993164 26.59350586 C-7.24692892 24.94187647 -6.80913191 23.29149117 -6.36499023 21.64282227 C-5.51863652 18.4296284 -5.00498355 15.90863495 -5.1875 12.5625 C-4.92390465 7.55418834 -2.64585615 4.16722343 0 0 Z M10 23 C9.16094435 24.12073862 8.32892169 25.24674547 7.5 26.375 C7.0359375 27.00148437 6.571875 27.62796875 6.09375 28.2734375 C4.82161899 29.94094613 4.82161899 29.94094613 5 32 C4.34 32 3.68 32 3 32 C2.30034557 33.26418246 1.61565237 34.53665402 0.9375 35.8125 C0.55464844 36.52019531 0.17179687 37.22789062 -0.22265625 37.95703125 C-1.30263511 40.14697801 -1.30263511 40.14697801 0 43 C4.62918587 36.8876769 8.83146525 30.99718091 12 24 C11.34 23.67 10.68 23.34 10 23 Z " fill="#F8F8F8" transform="translate(227,118)"/>
<path d="M0 0 C4.35763296 0.5028038 6.91905734 3.05301137 10 6 C11.94231497 9.96877354 12.72554387 14.05437832 13.5625 18.375 C13.81128906 19.64085937 14.06007813 20.90671875 14.31640625 22.2109375 C15.53530543 28.9671215 16.22597745 35.59119702 16.5625 42.4375 C16.60568359 43.26443359 16.64886719 44.09136719 16.69335938 44.94335938 C16.79838033 46.96209549 16.89958559 48.98102951 17 51 C19.7839183 49.60804085 19.97898997 47.84424221 21 45 C21.680625 45.433125 22.36125 45.86625 23.0625 46.3125 C25.29985965 47.59779171 27.38604442 48.63555055 29.75 49.625 C33 51 33 51 34 52 C34.6750128 57.67674696 34.45584808 62.94075917 31.60546875 67.97265625 C28.12676364 72.36547365 23.71714409 76.00322611 19 79 C17.68 79 16.36 79 15 79 C12.68279269 80.18498945 12.68279269 80.18498945 10.4375 81.8125 C9.67308594 82.33457031 8.90867187 82.85664063 8.12109375 83.39453125 C5.99411847 84.92054521 5.99411847 84.92054521 4.34765625 86.69921875 C3 88 3 88 1 88 C-2.79314352 76.77861708 -2.79314352 76.77861708 -2 71 C0 68.0625 0 68.0625 2 66 C-1.10540926 64.78918149 -1.10540926 64.78918149 -5 65 C-5.96355198 61.06375874 -6.91985918 57.12578996 -7.875 53.1875 C-8.14441406 52.08728516 -8.41382813 50.98707031 -8.69140625 49.85351562 C-9.48467567 46.57402375 -10.24977326 43.28958984 -11 40 C-11.23493164 38.998479 -11.46986328 37.99695801 -11.71191406 36.96508789 C-12.91259664 31.32929972 -13.23472279 27.54954257 -11 22.0625 C-10.52949219 20.89203125 -10.05898438 19.7215625 -9.57421875 18.515625 C-6.72396631 12.15029696 -3.87564215 5.81346322 0 0 Z M6 42 C2.35224614 45.88309282 1.41474367 48.71201818 1 54 C2.9668026 52.0331974 3.9371637 50.4555341 5.1875 48 C5.55230469 47.29875 5.91710937 46.5975 6.29296875 45.875 C6.52628906 45.25625 6.75960938 44.6375 7 44 C6.67 43.34 6.34 42.68 6 42 Z M19 71 C20 73 20 73 20 73 Z " fill="#7B7B7B" transform="translate(295,115)"/>
<path d="M0 0 C2 3 2 3 2 7 C1.01 7.495 1.01 7.495 0 8 C-2.7199729 13.50181851 -2.53143105 19.10377808 -2.75 25.125 C-2.83314453 26.74148437 -2.83314453 26.74148437 -2.91796875 28.390625 C-3.21352962 35.82442881 -3.41110036 44.17779928 0 51 C-0.00570796 52.37561933 -0.0532009 53.75124384 -0.125 55.125 C-0.19278474 59.34798956 0.6991861 62.31522677 2.34375 66.16015625 C3.27237123 68.7636122 3 71.25507006 3 74 C5.09636245 79.40640842 8.22722192 83.42626109 13.3125 86.3125 C13.869375 86.539375 14.42625 86.76625 15 87 C15 87.99 15 88.98 15 90 C17.64 90 20.28 90 23 90 C23.32484375 89.17242187 23.32484375 89.17242187 23.65625 88.328125 C25.46495634 85.19443611 27.81551674 83.16603494 30.5 80.75 C30.99886719 80.29109375 31.49773437 79.8321875 32.01171875 79.359375 C35.74102493 76 35.74102493 76 38 76 C38.26039063 75.32453125 38.52078125 74.6490625 38.7890625 73.953125 C39.66583735 71.81492569 40.60680952 69.7026831 41.5859375 67.609375 C45.81470377 58.56035719 48.58740784 49.7512098 50.57519531 39.97265625 C51.01662368 37.922805 51.53437297 35.90307622 52.06640625 33.875 C52.87352973 30.524931 53.36802729 27.42630277 53.625 24 C53.69976562 23.05125 53.77453125 22.1025 53.8515625 21.125 C53.92503906 20.073125 53.92503906 20.073125 54 19 C55.32 19 56.64 19 58 19 C63.24460515 31.14375835 62.82766425 47.80075263 58 60 C53.44651329 70.37403059 48.59375208 80.49582532 41 89 C40.401875 89.86625 39.80375 90.7325 39.1875 91.625 C33.91562091 97.34875444 29.08916541 101.27401126 21.0378418 101.78833008 C14.53993886 101.86310543 9.07212259 101.17337638 3.890625 96.9609375 C-10.62641662 81.9040059 -13.48859642 60.40439596 -13.125 40.29296875 C-12.77632094 31.10745479 -11.61109804 22.41461413 -9.62109375 13.4453125 C-9.0371009 10.20580497 -8.8845916 7.28161272 -9 4 C-8.01 3.67 -7.02 3.34 -6 3 C-6 2.34 -6 1.68 -6 1 C-4 0 -4 0 0 0 Z " fill="#F7F7F7" transform="translate(124,132)"/>
<path d="M0 0 C2.26171875 1.19921875 2.26171875 1.19921875 4 3 C4.390625 5.48046875 4.390625 5.48046875 4.25 8.1875 C4.21390625 9.08855469 4.1778125 9.98960938 4.140625 10.91796875 C4.09421875 11.60503906 4.0478125 12.29210937 4 13 C3.34 13.33 2.68 13.66 2 14 C1.67 14.99 1.34 15.98 1 17 C0.01 17 -0.98 17 -2 17 C-2.33 16.01 -2.66 15.02 -3 14 C-4.65 14 -6.3 14 -8 14 C-8.66 15.65 -9.32 17.3 -10 19 C-10.66 19 -11.32 19 -12 19 C-13.92505919 23.12512683 -14.67952419 27.2422046 -15.4375 31.6953125 C-16 34 -16 34 -18 37 C-19.09781064 41.75254731 -19.15163626 46.40220122 -19.125 51.25 C-19.12886719 51.96929687 -19.13273437 52.68859375 -19.13671875 53.4296875 C-19.20134589 57.34314201 -19.20134589 57.34314201 -18 61 C-17.91472372 63.03232634 -17.89283865 65.06747006 -17.90234375 67.1015625 C-17.90556641 68.31328125 -17.90878906 69.525 -17.91210938 70.7734375 C-17.92048828 72.04445313 -17.92886719 73.31546875 -17.9375 74.625 C-17.94201172 75.90375 -17.94652344 77.1825 -17.95117188 78.5 C-17.96298797 81.66671292 -17.97946185 84.83333356 -18 88 C-17.34 88 -16.68 88 -16 88 C-15.29875 88.9075 -14.5975 89.815 -13.875 90.75 C-7.84002429 98.09918246 1.51040418 99.58437876 10.51660156 100.77001953 C18.63677239 101.52200547 26.85788819 101.2195398 35 101 C35 102.32 35 103.64 35 105 C33.02 105.33 31.04 105.66 29 106 C29 106.99 29 107.98 29 109 C28.01 109 27.02 109 26 109 C26 110.32 26 111.64 26 113 C23.03 113 20.06 113 17 113 C17 112.34 17 111.68 17 111 C15.89591797 110.92652344 15.89591797 110.92652344 14.76953125 110.8515625 C13.30580078 110.73941406 13.30580078 110.73941406 11.8125 110.625 C10.84957031 110.55539063 9.88664062 110.48578125 8.89453125 110.4140625 C5.96221361 109.99459466 3.72709703 109.1209013 1 108 C-1.75266006 107.46607887 -4.50651523 107.06155749 -7.28125 106.66015625 C-12.51555505 105.38918275 -15.89443077 102.38120888 -19.625 98.625 C-20.38039063 97.87476563 -21.13578125 97.12453125 -21.9140625 96.3515625 C-23.98435288 94.01763963 -25.47208969 91.71137841 -27 89 C-27.66 88.01 -28.32 87.02 -29 86 C-29.57836914 83.76342773 -29.57836914 83.76342773 -30.03515625 81.18359375 C-30.20466797 80.25482422 -30.37417969 79.32605469 -30.54882812 78.36914062 C-30.71833984 77.40169922 -30.88785156 76.43425781 -31.0625 75.4375 C-31.40494156 73.51906344 -31.74987234 71.60106902 -32.09765625 69.68359375 C-32.24726807 68.83337646 -32.39687988 67.98315918 -32.55102539 67.10717773 C-32.91707755 64.9566746 -32.91707755 64.9566746 -34 63 C-35.01430405 51.8260275 -32.76845435 41.73341189 -30 31 C-29.76152344 30.00484375 -29.52304687 29.0096875 -29.27734375 27.984375 C-26.48560306 17.35235656 -19.99765442 8.05065635 -11.625 1 C-7.80865853 -0.45384437 -4.02577653 -0.73457819 0 0 Z " fill="#F8F8F8" transform="translate(391,103)"/>
<path d="M0 0 C0.66 0 1.32 0 2 0 C2.48919922 1.82724609 2.48919922 1.82724609 2.98828125 3.69140625 C3.42942116 5.31517655 3.87084239 6.93887044 4.3125 8.5625 C4.63250977 9.76229492 4.63250977 9.76229492 4.95898438 10.98632812 C6.29623909 15.87628941 7.94008347 20.3707854 10 25 C10.59743854 26.69643043 11.1645998 28.40413266 11.6875 30.125 C11.93886719 30.93195313 12.19023437 31.73890625 12.44921875 32.5703125 C13.02976491 35.13130336 13.05605539 37.38264438 13 40 C13.29749946 41.67343448 13.62127066 43.34305915 14 45 C12.906875 45.309375 11.81375 45.61875 10.6875 45.9375 C8.44592006 46.58337897 6.2130649 47.2623117 4 48 C1.13686209 48.07093999 -1.70064591 48.09337477 -4.5625 48.0625 C-5.73329102 48.05573242 -5.73329102 48.05573242 -6.92773438 48.04882812 C-8.95185144 48.03660309 -10.97593225 48.0186837 -13 48 C-13.66 48 -14.32 48 -15 48 C-16.32 48 -17.64 48 -19 48 C-18.00323854 31.15816849 -14.25858026 18.03753978 -3.515625 4.875 C-1.84512876 2.86700246 -1.84512876 2.86700246 0 0 Z " fill="#7A7A7A" transform="translate(238,144)"/>
<path d="M0 0 C0.66 0 1.32 0 2 0 C8.00443066 17.34315463 8.00443066 17.34315463 5.09375 24.10546875 C4 26.0625 4 26.0625 2 29 C2.33 28.67 2.66 28.34 3 28 C4.33333333 26.66666667 5.66666667 25.33333333 7 24 C8.45279396 28.53998112 9.22953218 32.17982427 9 37 C9 37.33 9 37.66 9 38 C9.66 38.33 10.32 38.66 11 39 C11.44921875 42.08984375 11.44921875 42.08984375 11.6875 45.9375 C11.77386719 47.20464844 11.86023438 48.47179687 11.94921875 49.77734375 C12 53 12 53 11 55 C11.99 55 12.98 55 14 55 C14.84681133 60.08086796 15.09038099 64.84828377 15 70 C12.24075308 67.24075308 11.43278611 64.12941983 10.09765625 60.5078125 C8.99320323 57.98447143 7.69346705 56.15808494 6 54 C1.43249383 46.74067201 -0.35321535 39.12941705 -2.10546875 30.85546875 C-2.8641897 27.1362002 -2.8641897 27.1362002 -4.09375 24.28125 C-6.91038488 17.19110014 -4.84722322 8.79154163 -2 2 C-1.34 1.34 -0.68 0.68 0 0 Z " fill="#7D7D7D" transform="translate(278,157)"/>
<path d="M0 0 C0.28875 0.61875 0.5775 1.2375 0.875 1.875 C1.93720042 4.13325765 1.93720042 4.13325765 4 6 C5.39298516 10.11801238 5.64513782 13.61368442 3.79296875 17.59375 C2.30435428 19.88281167 0.86418076 22.00367478 -1 24 C-1.66 24 -2.32 24 -3 24 C-3.99 26.475 -3.99 26.475 -5 29 C-5.33 29 -5.66 29 -6 29 C-5.45388614 22.99274752 -4.57154327 17.06923933 -3.5625 11.125 C-3.44028076 10.37549072 -3.31806152 9.62598145 -3.19213867 8.85375977 C-2.57560288 5.31198401 -2.0207026 3.0310539 0 0 Z " fill="#828282" transform="translate(233,126)"/>
<path d="M0 0 C0.66 0.66 1.32 1.32 2 2 C1.9765625 4.6015625 1.9765625 4.6015625 1.625 7.625 C1.51414062 8.62789062 1.40328125 9.63078125 1.2890625 10.6640625 C1.19367188 11.43492187 1.09828125 12.20578125 1 13 C0.34 13 -0.32 13 -1 13 C-0.95875 14.155 -0.9175 15.31 -0.875 16.5 C-0.85912567 20.94481301 -1.78206895 24.73724131 -3 29 C-3.33 29 -3.66 29 -4 29 C-4.46376613 19.77620687 -4.23008521 8.46017042 0 0 Z " fill="#DCDCDC" transform="translate(274,137)"/>
<path d="M0 0 C2.00293347 3.00440021 2.49271626 4.70993945 3.125 8.1875 C3.29257812 9.08855469 3.46015625 9.98960937 3.6328125 10.91796875 C3.75398438 11.60503906 3.87515625 12.29210937 4 13 C3.34 13 2.68 13 2 13 C2.33 14.98 2.66 16.96 3 19 C2.34 19 1.68 19 1 19 C0.49411853 17.08487728 -0.00448391 15.16783078 -0.5 13.25 C-0.7784375 12.18265625 -1.056875 11.1153125 -1.34375 10.015625 C-2 7 -2 7 -2 3 C-1.34 3 -0.68 3 0 3 C0 2.01 0 1.02 0 0 Z " fill="#EDEDED" transform="translate(274,181)"/>
<path d="M0 0 C1.65 0.33 3.3 0.66 5 1 C5.84681133 6.08086796 6.09038099 10.84828377 6 16 C3.73725135 13.73725135 3.07338058 11.97142905 1.9375 9 C0.58079164 5.45044525 0.58079164 5.45044525 -1 2 C-0.67 1.34 -0.34 0.68 0 0 Z " fill="#919191" transform="translate(287,211)"/>
<path d="M0 0 C0.66 1.32 1.32 2.64 2 4 C2.99 3.67 3.98 3.34 5 3 C5 3.66 5 4.32 5 5 C4.34 5 3.68 5 3 5 C2.67 6.32 2.34 7.64 2 9 C0.35 8.67 -1.3 8.34 -3 8 C-3.33 6.02 -3.66 4.04 -4 2 C-3.34 2 -2.68 2 -2 2 C-1.67 2.66 -1.34 3.32 -1 4 C-0.67 2.68 -0.34 1.36 0 0 Z " fill="#E4E4E4" transform="translate(205,225)"/>
<path d="M0 0 C1.32 0 2.64 0 4 0 C6 3 6 3 6 7 C5.01 7.33 4.02 7.66 3 8 C2.67 7.34 2.34 6.68 2 6 C1.34 7.32 0.68 8.64 0 10 C-0.33 9.01 -0.66 8.02 -1 7 C0.4375 4.3125 0.4375 4.3125 2 2 C1.34 1.34 0.68 0.68 0 0 Z " fill="#D4D4D4" transform="translate(120,132)"/>
<path d="M0 0 C0.66 0.33 1.32 0.66 2 1 C-1.96 4.96 -5.92 8.92 -10 13 C-10 9.28115772 -9.1259934 8.63852271 -6.6875 5.9375 C-5.76517578 4.89916016 -5.76517578 4.89916016 -4.82421875 3.83984375 C-3 2 -3 2 0 0 Z " fill="#E0E0E0" transform="translate(380,104)"/>
<path d="M0 0 C2 3 2 3 2 6 C1.34 6 0.68 6 0 6 C0.33 8.97 0.66 11.94 1 15 C-1.02350324 11.96474514 -1.32124018 10.80573798 -1.625 7.3125 C-1.69976562 6.50425781 -1.77453125 5.69601563 -1.8515625 4.86328125 C-1.90054687 4.24839844 -1.94953125 3.63351563 -2 3 C-1.34 3 -0.68 3 0 3 C0 2.01 0 1.02 0 0 Z " fill="#E1E1E1" transform="translate(274,181)"/>
<path d="M0 0 C1.65 0 3.3 0 5 0 C4.01 1.98 3.02 3.96 2 6 C0.33333333 6 -1.33333333 6 -3 6 C-2.67 4.68 -2.34 3.36 -2 2 C-1.34 2 -0.68 2 0 2 C0 1.34 0 0.68 0 0 Z " fill="#E7E7E7" transform="translate(118,133)"/>
<path d="M0 0 C0.33 0 0.66 0 1 0 C2.33257403 9.41002278 2.33257403 9.41002278 1 14 C0.67 14 0.34 14 0 14 C-0.19627391 12.41773035 -0.38165538 10.83410729 -0.5625 9.25 C-0.66691406 8.36828125 -0.77132813 7.4865625 -0.87890625 6.578125 C-0.99456676 4.11567549 -0.73638695 2.33461936 0 0 Z " fill="#B4B4B4" transform="translate(373,177)"/>
<path d="M0 0 C0.33 0 0.66 0 1 0 C1 1.98 1 3.96 1 6 C0.01 6 -0.98 6 -2 6 C-2.33 6.66 -2.66 7.32 -3 8 C-3.33 6.02 -3.66 4.04 -4 2 C-3.34 2 -2.68 2 -2 2 C-1.67 2.66 -1.34 3.32 -1 4 C-0.67 2.68 -0.34 1.36 0 0 Z " fill="#B6B6B6" transform="translate(205,225)"/>
<path d="M0 0 C0.99 0.33 1.98 0.66 3 1 C2.34 1 1.68 1 1 1 C1 1.99 1 2.98 1 4 C0.195625 4.12375 -0.60875 4.2475 -1.4375 4.375 C-2.7059375 4.684375 -2.7059375 4.684375 -4 5 C-4.33 5.66 -4.66 6.32 -5 7 C-5 6.01 -5 5.02 -5 4 C-4.01 4 -3.02 4 -2 4 C-2 3.01 -2 2.02 -2 1 C-1.34 0.67 -0.68 0.34 0 0 Z " fill="#B3B3B3" transform="translate(422,208)"/>
<path d="" fill="#696969" transform="translate(0,0)"/>
<path d="" fill="#555555" transform="translate(0,0)"/>
<path d="" fill="#5C5C5C" transform="translate(0,0)"/>
</svg>
