<svg width="137" height="15" viewBox="0 0 137 15" fill="none" xmlns="http://www.w3.org/2000/svg">
<path d="M1.78397 3.88907C2.61792 3.25729 7.22995 3.67427 12.7138 3.99332C19.6717 4.39812 26.1898 4.93784 39.2551 5.67387C50.0147 6.28 69.2081 6.20141 79.8189 6.20456C95.2749 6.20917 100.33 5.36745 104.642 5.0484C108.574 4.75744 111.487 4.10388 115.802 3.68058C121.669 3.10507 124.969 2.20852 135.056 2.09796C136.978 2.0769 121.912 3.87644 108.805 4.6251C104.998 4.84256 96.2042 5.15264 84.8353 5.25689C74.685 5.34996 62.8776 6.20141 55.094 6.52046C50.8319 6.69516 47.9169 7.46498 44.3378 7.78403C41.1041 8.0723 37.8083 9.36033 34.1282 10.0995C32.783 10.3697 30.884 10.2069 30.6471 10.4154C29.6162 11.3226 35.8751 11.8875 44.3568 12.5193C59.6777 13.6605 70.2189 12.5256 72.0037 12.2097C75.8579 11.5275 84.2698 11.4705 91.8892 10.9461C103.495 11.2557 106.85 12.1023 109.914 12.6267C110.653 12.7341 111.487 12.7341 112.346 12.7341" stroke="black" stroke-width="3" stroke-linecap="round"/>
</svg>
