<svg width="1733" height="58" viewBox="0 0 1733 58" fill="none" xmlns="http://www.w3.org/2000/svg">
<path d="M10.4609 27.1515C21.3184 29.0641 44.5401 32.9473 54.8566 31.3438C65.0553 29.7586 80.5513 32.9473 97.9773 34.5508C115.357 36.15 124.406 36.8111 134.066 35.2076C143.619 33.6218 164.204 36.8111 181.388 38.4146C196.509 39.8256 213.197 40.675 230.295 42.2785C266.573 45.6808 278.303 39.3999 288.62 36.8208C298.936 34.2417 309.214 31.6722 323.694 30.3778C339.769 28.9409 351.06 25.8764 373.258 22.0126C385.752 19.8378 399.976 19.4238 414.176 17.8203C424.989 16.5992 433.534 16.8543 454.601 15.8883C473.739 15.0109 510.096 15.5599 530.41 15.8787C568.065 16.4695 596.415 18.7669 609.629 19.7425C628.617 21.1445 651.784 22.6308 679.768 23.6064C697.594 24.2279 712.987 26.4946 732.925 27.4703C745.302 28.0759 756.765 30.3585 767.738 31.3341C778.139 32.2588 818.934 39.3226 844.368 42.9257C860.391 45.1956 877.162 45.8139 893.613 46.7895C911.38 47.8433 928.049 47.1276 969.18 46.152C982.175 45.8438 993.735 44.5388 1007.24 44.2201C1016.96 43.9905 1043.81 42.6069 1080.18 42.2881C1096.81 42.1424 1112.82 40.675 1133.09 40.3562C1161.12 39.9156 1198.56 40.0181 1210.14 40.3562C1225.66 40.8093 1243.61 40.0181 1252.66 40.3562C1254.63 40.4297 1256.52 39.3999 1276.31 39.0715C1296.1 38.743 1333.72 38.743 1354.69 38.4243C1385.36 37.9581 1407.09 34.261 1425.87 29.7403C1438.54 26.6905 1465.67 22.6694 1489.91 17.5112C1515.12 12.1473 1529.54 12.3529 1542.11 11.3773C1559.16 10.055 1581.08 11.0392 1588.82 15.5406C1603.61 24.1443 1632.58 20.6988 1657.33 21.6745C1671.96 22.251 1683.47 24.5627 1691.21 25.5383C1700.22 27.789 1709.88 29.7209 1716.3 30.6869C1719.54 31.0153 1722.73 31.0153 1722.15 34.8792" stroke="#555555" stroke-width="5" stroke-linecap="round"/>
</svg>
