<svg width="245" height="302" viewBox="0 0 245 302" fill="none" xmlns="http://www.w3.org/2000/svg">
<path d="M223.728 216.724C222.72 218.77 212.412 229.063 193.315 247.657C186.74 254.058 170.652 271.35 148.95 292.029C141.9 298.747 141.572 296.338 143.874 289.913C150.115 272.493 160.127 254.004 168.893 238.286C177.651 222.581 184.417 206.974 194.454 192.806C199.994 184.985 208.072 177.103 211.513 173.654C219.611 165.538 173.721 206.834 159.429 217.22C158.199 218.114 170.915 198.789 182.076 181.684C201.475 151.953 140.053 216.182 135.658 218.522C134.473 219.154 134.844 215.236 143.037 198.565C151.229 181.893 167.087 151.712 173.721 137.444C180.356 123.175 177.286 125.732 169.567 134.723C161.847 143.714 149.57 159.06 129.69 178.731C109.81 198.402 82.6984 221.933 74.3588 223.568C66.0192 225.203 77.273 204.23 93.0454 179.359C108.818 154.487 128.768 126.353 138.022 114.417C147.276 102.481 145.23 107.596 130.62 130.949C116.01 154.301 88.8989 195.736 84.3958 202.758C79.8927 209.78 98.8196 181.134 129.799 140.544C160.778 99.9541 203.235 48.2887 224.596 22.6964C245.956 -2.89603 244.933 -0.849882 219.341 29.6176C193.749 60.0851 143.618 118.912 103.981 161.238C64.3451 203.564 36.722 227.606 19.9343 241.526C3.14655 255.446 -1.96882 258.515 17.6479 228.637C37.2646 198.758 81.7684 135.839 108.531 99.0782C135.294 62.3173 142.967 53.6211 153.973 44.6615" stroke="black" stroke-width="10" stroke-linecap="round"/>
</svg>
