<svg width="1729" height="41" viewBox="0 0 1729 41" fill="none" xmlns="http://www.w3.org/2000/svg">
<path d="M5.52905 24.6068C8.0792 20.7623 24.7324 14.329 41.2214 9.80825C45.9315 8.51692 54.4068 7.87632 86.3802 5.9444C111.94 4.39999 156.606 5.28754 181.19 5.60631C208.975 5.96659 223.083 7.21947 241.099 7.53824C251.506 7.72238 266.223 9.1514 285.523 8.83263C297.21 8.6396 331.716 7.21947 379.995 7.53824C410.58 7.74018 428.544 10.4265 442.415 11.4021C449.839 11.9242 460.749 13.0153 481.257 14.6091C514.756 17.2126 537.427 22.6749 556.911 24.5875C573.87 26.2523 605.084 30.3253 634.884 32.2959C664.684 34.2665 692.098 34.2665 709.089 33.9477C731.834 33.521 744.105 32.3345 756.634 31.697C768.662 31.0849 785.912 27.1956 805.849 25.2637C819.364 23.9541 838.692 22.6942 868.55 19.7963C921.633 14.6443 932.159 20.743 942.475 22.3465C947.564 23.1373 952.792 23.3124 986.301 24.2784C1017.25 25.1705 1076.55 24.6068 1108.69 24.288C1144.03 23.9376 1163.87 22.6749 1190.58 22.9937C1212.98 23.261 1230.95 25.8819 1265.66 26.22C1274.82 26.3092 1286.94 24.6068 1303.35 24.288C1311.53 24.1292 1346.6 22.6749 1398.42 22.9937C1425.49 23.1602 1444.66 22.6749 1462.15 24.2784C1476.99 25.638 1491.14 28.4707 1504.33 31.9964C1516.08 35.1383 1525.26 35.5415 1546.48 35.8796C1557.71 36.0585 1567.76 31.0595 1576.16 28.4803C1584.38 25.9554 1594.81 25.2637 1606.41 24.288C1615.55 23.5192 1627 21.3998 1639.25 20.4242C1656.59 19.0441 1682.4 17.536 1696.87 16.5603C1707.54 13.6721 1713.33 9.80825 1717.19 8.19509C1719.13 7.857 1721.04 8.49454 1723.01 9.1514" stroke="#555555" stroke-width="5" stroke-linecap="round"/>
</svg>
