<svg width="722" height="57" viewBox="0 0 722 57" fill="none" xmlns="http://www.w3.org/2000/svg">
<path d="M5 8.88021C9.32526 8.88021 33.1797 8.88021 67.3886 8.55325C82.8916 8.40507 109.615 6.89862 148.181 6.57166C162.963 6.44634 168.006 5.59077 242.332 5.2539C316.659 4.91703 460.114 4.91703 537.258 5.244C614.403 5.57096 620.891 6.22488 640.093 6.56175C691.005 7.45495 721.53 7.55254 716.451 8.54334C710.066 9.78897 669.452 13.4577 610.864 20.3932C589.072 22.973 583.274 22.7513 577.42 23.0783C571.566 23.4052 565.799 24.0592 481.008 24.396C396.218 24.7329 232.579 24.7329 150.082 24.079C67.5852 23.4251 71.1896 22.1172 74.8486 21.4435C82.0039 20.1259 92.3135 19.4619 137.106 16.1724C175.348 13.3641 245.336 11.5752 283.16 10.5546C320.984 9.53413 324.589 10.1881 340.503 10.5249C384.52 11.4567 424.31 9.55395 447.542 7.57236C473.553 5.35371 493.536 8.20647 508.402 10.1881C547.04 15.3386 572.09 12.8434 590.767 16.7867C600.54 18.85 544.129 26.0011 485.781 32.6394C474.009 33.9788 466.798 35.2749 440.017 36.2756C413.235 37.2763 367.099 37.9303 340.088 38.9211C306.52 40.1523 288.37 43.875 258.639 46.1836C216.05 49.4906 183.472 49.8198 175.072 51.8014C173.714 52.1218 178.928 52.4751 237.395 49.2055C295.863 45.9359 407.599 39.3966 470.206 36.6819C532.813 33.9671 542.905 35.2749 553.15 35.9487C563.396 36.6224 573.488 36.6224 583.886 36.6224" stroke="black" stroke-width="10" stroke-linecap="round"/>
</svg>
